<?xml version="1.0" standalone="no"?>
<!DOCTYPE svg PUBLIC "-//W3C//DTD SVG 20010904//EN"
 "http://www.w3.org/TR/2001/REC-SVG-20010904/DTD/svg10.dtd">
<svg version="1.0" xmlns="http://www.w3.org/2000/svg"
 width="680.000000pt" height="680.000000pt" viewBox="0 0 680.000000 680.000000"
 preserveAspectRatio="xMidYMid meet">
<metadata>
Created by potrace 1.14, written by Peter Selinger 2001-2017
</metadata>
<g transform="translate(0.000000,680.000000) scale(0.100000,-0.100000)"
fill="#000000" stroke="none">
<path d="M3666 6359 c-33 -5 -125 -29 -206 -54 -80 -25 -149 -45 -154 -45 -13
0 -98 -51 -94 -56 2 -2 49 12 104 32 243 87 335 105 534 107 96 1 199 -2 228
-6 75 -11 66 9 -11 22 -73 13 -314 13 -401 0z"/>
<path d="M4165 6330 c-6 -10 26 -30 50 -30 9 0 57 -13 108 -30 51 -16 108 -32
127 -35 31 -5 59 -18 112 -57 9 -7 21 -9 25 -4 14 14 -45 54 -104 72 -176 51
-261 76 -285 83 -16 5 -30 5 -33 1z"/>
<path d="M1195 6276 c-35 -15 -92 -76 -106 -113 -13 -36 -1 -71 47 -136 37
-50 52 -77 42 -77 -2 0 -27 7 -57 14 -96 26 -138 -12 -127 -116 13 -111 53
-154 153 -164 l59 -6 17 -47 c19 -53 56 -81 110 -81 56 0 117 70 117 136 0 21
3 24 28 18 15 -4 37 -13 49 -20 30 -19 98 -18 128 2 96 63 80 211 -27 243 -24
8 -50 15 -58 18 -10 3 -2 12 25 28 89 52 119 108 89 170 -10 22 -30 40 -60 54
-73 35 -89 30 -165 -51 l-67 -72 -6 39 c-9 54 -45 124 -76 147 -35 25 -79 30
-115 14z m169 -313 c-14 -73 -20 -88 -41 -91 -24 -4 -41 15 -49 54 -5 26 -1
32 33 51 56 33 65 30 57 -14z"/>
<path d="M3034 6127 c-77 -50 -172 -121 -210 -155 -71 -66 -141 -113 -231
-158 -29 -14 -53 -28 -53 -31 0 -3 17 -2 38 1 43 8 186 100 252 162 68 63 94
83 238 178 72 48 132 89 132 92 0 15 -41 -7 -166 -89z"/>
<path d="M4602 6149 c2 -7 20 -17 38 -22 35 -9 130 -80 187 -140 41 -42 127
-159 155 -209 12 -21 25 -38 29 -38 4 0 20 -39 35 -87 15 -49 48 -155 75 -238
70 -221 103 -402 145 -793 13 -130 29 -300 35 -377 5 -77 14 -159 18 -182 5
-24 7 -43 6 -43 -2 0 -30 -7 -62 -15 -32 -8 -80 -16 -106 -19 -26 -2 -53 -8
-60 -14 -24 -19 -56 -20 -71 -3 -41 45 -83 232 -57 251 4 3 20 22 35 42 16 21
33 35 39 31 6 -3 7 -1 3 5 -4 6 0 32 9 57 26 78 18 221 -15 245 -13 9 -29 70
-20 75 5 3 11 20 15 38 4 17 14 43 22 56 13 20 15 43 10 115 -4 50 -11 105
-16 122 -5 17 -12 67 -15 110 -10 116 -44 285 -64 313 -9 13 -26 38 -37 56
-27 44 -97 128 -115 140 -8 5 -37 17 -65 27 -41 14 -62 15 -118 7 -38 -5 -76
-13 -85 -18 -24 -12 -354 -24 -370 -13 -14 10 -9 11 96 27 34 6 40 10 33 22
-17 31 0 52 54 68 29 8 66 15 82 15 15 1 39 10 52 20 23 19 23 21 7 54 -9 19
-16 38 -16 43 0 18 -186 143 -215 143 -8 0 -15 4 -15 8 0 4 -21 13 -46 20 -26
7 -59 21 -73 31 -65 45 -132 51 -218 21 -32 -11 -83 -20 -114 -20 -31 0 -85
-9 -119 -20 -34 -11 -74 -20 -89 -20 -42 -1 -140 -27 -167 -45 -14 -9 -41 -34
-61 -56 -19 -21 -39 -37 -43 -34 -9 5 -80 -70 -80 -85 0 -5 -4 -10 -10 -10 -5
0 -10 -9 -10 -20 0 -25 -21 -70 -33 -70 -5 0 -11 9 -14 20 -4 16 -13 20 -40
18 -20 -1 -38 3 -43 11 -9 15 -74 41 -104 41 -32 0 -90 -23 -108 -44 -10 -10
-20 -34 -24 -52 -3 -19 -9 -34 -13 -34 -10 0 -31 -62 -31 -89 0 -16 4 -21 15
-17 20 7 19 -4 -2 -19 -14 -10 -17 -27 -15 -88 3 -68 0 -81 -27 -129 -35 -62
-161 -431 -160 -468 0 -23 1 -24 10 -5 8 17 8 16 3 -5 -3 -14 -7 -35 -8 -47 0
-13 -4 -23 -8 -23 -5 0 -8 -9 -8 -21 0 -11 4 -18 9 -15 4 3 5 -13 1 -35 -4
-23 -3 -57 2 -76 7 -26 6 -38 -3 -47 -9 -8 -11 -7 -6 5 3 9 0 22 -6 28 -6 6
-8 11 -5 11 4 0 -4 28 -18 62 -13 34 -29 101 -36 148 -10 75 -9 93 5 135 19
54 23 117 6 80 -5 -11 -24 -60 -44 -110 l-35 -90 6 65 c9 112 33 236 59 314
28 84 29 90 14 80 -16 -10 -48 -91 -66 -164 -31 -133 -55 -430 -34 -430 5 0
19 35 32 77 l24 76 8 -44 c4 -24 5 -57 2 -72 -2 -15 -1 -26 4 -23 7 5 26 -61
21 -73 -1 -2 2 -7 7 -10 13 -9 45 -120 38 -131 -3 -6 -1 -10 5 -10 6 0 9 -4 5
-9 -3 -5 -1 -12 4 -16 6 -3 8 -12 4 -20 -3 -8 0 -15 7 -15 7 0 9 -8 5 -21 -4
-12 -3 -19 1 -16 5 3 14 0 19 -7 16 -18 14 -46 -2 -46 -11 0 -14 7 -10 21 4
15 3 19 -5 11 -16 -16 0 -54 21 -47 14 4 21 -5 34 -42 8 -27 19 -56 23 -67 6
-16 4 -17 -16 -11 -15 5 -20 4 -16 -3 4 -6 -6 -18 -21 -26 -27 -15 -27 -16 -6
-22 11 -3 23 -14 26 -25 3 -10 11 -19 19 -19 9 0 9 3 2 8 -20 13 -25 48 -9 62
17 14 45 7 45 -12 0 -9 -3 -8 -10 2 -8 13 -11 13 -24 0 -11 -10 -12 -20 -6
-30 8 -13 10 -12 10 4 0 14 3 16 13 7 8 -6 17 -8 21 -4 4 4 4 0 0 -10 -3 -9
-1 -17 4 -17 6 0 1 -10 -10 -23 -12 -13 -22 -37 -24 -53 -2 -16 -6 -40 -9 -52
-4 -15 -2 -21 4 -17 7 3 8 0 5 -10 -6 -14 -8 -14 -19 1 -15 22 -35 10 -35 -21
0 -27 15 -42 24 -23 3 7 3 0 -1 -15 -4 -22 -1 -32 17 -44 16 -11 20 -22 16
-39 -4 -16 -2 -26 7 -30 16 -6 23 -144 7 -144 -5 0 -8 10 -8 23 1 12 1 41 0
63 -2 35 -6 42 -26 46 -19 4 -23 1 -19 -11 4 -11 0 -9 -10 4 -9 11 -16 27 -17
35 0 13 1 13 10 0 9 -13 10 -13 10 0 0 8 -11 28 -25 44 -14 16 -25 35 -25 43
0 8 -13 44 -28 81 -16 37 -29 69 -30 72 0 3 -3 12 -5 20 -3 8 -17 58 -32 110
-15 52 -31 100 -35 105 -8 10 -50 246 -50 275 0 12 2 12 9 1 18 -28 21 9 7 67
-16 61 -34 244 -37 372 -3 142 29 293 97 459 19 46 33 85 30 88 -6 6 -46 -38
-46 -52 0 -19 -57 -145 -63 -139 -3 3 -8 -9 -11 -27 -24 -144 -39 -291 -46
-444 -5 -99 -14 -252 -20 -340 -17 -244 5 -485 60 -666 32 -102 98 -215 164
-278 20 -19 36 -39 36 -43 0 -4 -27 -8 -60 -8 -32 0 -130 -9 -217 -20 -86 -11
-163 -18 -170 -16 -8 3 -14 -11 -19 -40 -16 -109 91 -471 161 -542 8 -10 35
-48 59 -86 72 -115 213 -256 255 -256 6 0 33 -15 60 -32 47 -32 50 -36 61 -99
21 -111 8 -300 -32 -454 l-33 -130 -158 -12 c-143 -11 -161 -11 -184 4 -31 20
-141 22 -154 2 -6 -11 -11 -11 -21 -1 -9 9 -9 12 0 12 7 0 12 4 12 10 0 6 -9
6 -26 0 -34 -13 -41 -13 -41 5 0 12 3 12 16 2 12 -10 14 -9 9 5 -7 16 18 35
30 23 3 -3 -1 -5 -8 -5 -7 0 -11 -2 -8 -5 8 -8 39 6 33 15 -3 5 5 6 17 3 15
-3 19 -2 11 4 -8 6 13 17 62 32 70 21 104 41 72 41 -26 0 -207 -58 -247 -79
-23 -12 -49 -21 -60 -21 -11 0 -20 -4 -20 -8 0 -4 -17 -8 -39 -7 l-38 0 23 31
c13 17 24 37 24 45 0 11 2 11 10 -1 9 -13 11 -13 20 0 5 8 10 27 10 43 0 24 4
27 35 27 22 0 35 5 35 13 0 7 24 21 53 30 29 9 62 24 72 32 19 15 18 16 -13
10 -18 -4 -60 -18 -94 -31 -86 -34 -94 -29 -102 60 -13 148 -89 272 -198 326
-68 34 -152 54 -202 48 -34 -4 -37 -2 -44 26 -11 42 -40 44 -77 7 -37 -39 -24
-54 14 -17 l30 28 11 -42 c9 -33 15 -40 28 -35 37 16 52 16 106 5 64 -13 176
-66 176 -83 0 -7 9 -18 20 -25 11 -7 20 -17 20 -24 0 -7 -5 -5 -12 4 -7 9 -24
19 -38 22 -18 5 -21 4 -10 -3 13 -8 14 -23 9 -88 -5 -60 -3 -86 8 -111 18 -37
73 -88 82 -74 3 4 14 12 25 15 13 5 17 14 14 32 -3 14 -1 25 3 25 5 0 9 -28 9
-62 0 -46 -8 -82 -29 -133 l-28 -70 -44 -1 c-24 -1 -62 -7 -84 -13 -22 -6 -87
-11 -144 -11 -57 0 -121 -5 -143 -12 -29 -9 -41 -9 -50 0 -16 16 -66 15 -199
-4 -102 -14 -113 -14 -128 1 -13 13 -14 17 -2 24 10 7 11 13 2 30 -7 11 -15
21 -20 21 -4 0 -26 19 -49 42 -61 61 -75 152 -45 299 l5 27 38 -38 c36 -36 38
-41 29 -74 -5 -20 -9 -42 -8 -48 4 -34 -2 -69 -11 -63 -13 8 -3 -38 16 -77 21
-41 90 -77 164 -85 45 -4 58 -9 45 -14 -16 -6 -16 -8 -4 -8 9 -1 22 6 29 14 7
9 18 14 24 12 16 -6 64 21 76 42 5 11 7 27 4 35 -4 9 -1 16 6 16 23 0 4 151
-27 214 -28 57 -43 68 -118 84 -22 5 -39 14 -37 21 5 26 -27 79 -58 95 -18 8
-36 13 -41 10 -5 -3 -9 -1 -9 4 0 5 14 15 31 22 19 8 26 16 19 20 -8 5 -2 18
19 41 l30 34 1 -27 c0 -33 25 -42 115 -43 83 0 81 19 -2 25 -76 6 -93 13 -93
40 0 10 -5 22 -11 26 -12 7 -76 -51 -84 -76 -3 -9 -30 -34 -60 -56 -30 -21
-55 -42 -55 -45 0 -3 -7 -14 -15 -25 -13 -17 -13 -15 0 18 23 58 -8 39 -33
-20 -33 -78 -44 -132 -45 -227 -1 -78 3 -96 25 -141 15 -27 34 -57 44 -64 15
-14 15 -15 -7 -21 -13 -4 -43 -7 -67 -8 -28 -1 -41 -5 -37 -12 5 -6 38 -9 89
-7 79 3 106 -3 106 -23 0 -6 -5 -7 -10 -4 -6 3 -10 -4 -10 -17 0 -15 11 -29
31 -40 39 -23 51 -22 71 1 12 15 36 21 102 26 47 4 102 4 123 1 42 -8 48 -8
182 0 60 4 97 2 104 -5 6 -6 16 -11 21 -11 6 0 4 5 -4 10 -24 15 7 13 55 -5
39 -14 39 -14 10 -15 -17 0 -39 -6 -50 -13 -27 -19 -116 -48 -126 -42 -4 3
-10 1 -14 -4 -3 -6 -12 -8 -19 -5 -8 3 -17 0 -21 -5 -3 -6 -10 -9 -15 -6 -5 3
-12 0 -15 -5 -5 -8 4 -10 27 -6 18 3 55 8 83 11 27 4 52 10 55 15 3 5 23 7 44
5 22 -2 34 0 27 4 -17 11 50 29 94 26 19 -1 35 2 35 8 0 5 -7 7 -15 3 -26 -10
-16 2 15 17 28 15 29 14 20 -3 -6 -10 -7 -21 -3 -23 9 -5 34 18 28 25 -2 2 6
5 18 5 17 2 19 0 7 -7 -12 -8 -9 -10 12 -10 15 0 30 -5 34 -11 4 -8 -3 -9 -25
-4 -19 4 -31 3 -31 -4 0 -5 -17 -12 -37 -14 -21 -2 -4 -2 37 0 41 3 76 8 78
12 1 4 26 6 55 4 38 -3 48 -1 37 6 -17 12 75 8 119 -5 17 -5 22 -4 17 4 -9 15
-1 15 26 1 15 -8 19 -8 14 0 -5 8 14 11 61 12 37 0 123 4 191 7 67 4 122 6
122 5 0 0 -36 -24 -79 -52 -79 -51 -127 -68 -101 -36 16 20 -4 20 -40 2 -14
-8 -36 -16 -49 -20 -38 -10 -5 16 49 38 25 10 49 22 54 27 16 13 -42 9 -79 -6
-18 -8 -36 -11 -40 -8 -4 4 -5 2 -3 -3 2 -6 -7 -20 -20 -33 -17 -17 -34 -22
-75 -23 -111 -2 -101 -17 14 -18 77 -1 119 -5 128 -14 11 -9 13 -9 7 1 -10 18
42 16 60 -3 30 -30 111 -17 159 25 29 25 174 52 160 30 -7 -11 88 -60 115 -60
9 0 32 8 52 18 31 16 35 17 30 3 -4 -10 7 -6 31 12 20 15 37 24 37 19 0 -31
-27 -74 -61 -97 -61 -43 -121 -113 -118 -138 3 -27 -35 -102 -56 -110 -8 -4
-14 -10 -13 -14 2 -4 -19 -28 -46 -53 -55 -51 -87 -97 -105 -153 -11 -33 -10
-41 8 -71 12 -19 36 -40 54 -49 50 -23 125 -40 147 -34 11 3 23 -1 28 -7 29
-50 171 -46 187 4 5 16 11 16 73 4 37 -8 81 -22 98 -31 21 -11 44 -14 71 -11
26 4 40 2 41 -6 0 -6 15 -58 33 -115 30 -100 31 -105 15 -138 -22 -47 -20 -92
8 -147 26 -52 36 -82 42 -136 14 -122 97 -175 236 -150 35 7 65 15 68 18 3 4
14 12 25 18 45 25 17 108 -39 116 -18 3 -30 28 -74 158 -29 85 -62 185 -73
222 -19 63 -59 308 -53 317 2 2 21 7 43 11 34 6 40 4 44 -12 12 -46 174 -67
231 -29 16 11 35 17 42 14 8 -3 14 -1 14 5 0 7 13 6 40 0 34 -9 40 -15 40 -37
1 -38 40 -62 122 -72 53 -7 77 -6 97 5 32 16 124 46 129 42 1 -2 -11 -59 -28
-127 -27 -109 -61 -207 -91 -261 -5 -10 -9 -25 -9 -35 0 -16 -38 -103 -49
-113 -4 -3 -7 -18 -8 -35 -1 -16 -6 -31 -12 -33 -6 -2 -9 -8 -6 -13 4 -5 -14
-30 -39 -57 -35 -37 -45 -55 -44 -80 2 -56 64 -79 205 -73 44 1 89 49 108 114
8 28 15 56 15 63 0 7 9 15 20 19 11 3 29 18 40 33 19 23 21 35 15 87 -3 33
-11 74 -16 92 -9 29 -6 39 30 98 22 37 43 80 46 96 4 17 26 67 50 112 23 45
50 105 60 132 9 28 20 57 23 65 3 8 4 23 3 34 -2 10 2 15 7 12 6 -3 8 2 5 14
-5 17 -2 18 23 11 16 -4 45 -6 64 -5 26 2 50 -7 98 -38 34 -22 62 -44 62 -49
0 -9 61 11 109 36 18 9 40 29 50 45 10 17 20 28 23 25 3 -3 8 1 11 9 4 9 2 18
-4 22 -7 4 -7 10 0 18 18 21 30 140 20 186 -12 51 -21 69 -64 126 -34 44 -48
93 -59 204 -3 37 -2 48 4 35 5 -11 9 -35 9 -52 1 -18 6 -33 12 -33 6 0 9 -6 6
-14 -8 -21 23 -43 62 -44 25 -1 34 4 38 19 3 10 12 19 19 19 17 0 18 17 2 23
-7 2 -1 8 15 12 33 9 117 -2 117 -16 0 -5 18 -9 40 -9 22 0 40 4 40 10 0 5 12
16 28 24 15 8 23 15 18 16 -5 0 -3 7 4 15 7 9 29 15 50 15 21 0 64 10 94 22
51 19 61 20 96 8 42 -14 52 -35 21 -45 -10 -3 -26 -14 -35 -24 -26 -29 -1 -36
34 -11 22 16 28 17 24 6 -7 -19 0 -20 29 -5 80 41 103 116 48 161 -15 13 -64
35 -107 47 -81 24 -144 61 -144 86 0 8 -5 17 -12 21 -7 5 -8 3 -3 -6 5 -9 4
-11 -3 -6 -9 5 -9 13 -2 26 7 13 7 21 -2 26 -7 5 -8 3 -3 -6 6 -9 4 -11 -4 -5
-9 5 -10 10 -2 18 6 6 10 25 10 42 l-2 30 -5 -30 c-4 -26 -5 -27 -12 -10 -4
11 -3 30 3 42 7 17 5 30 -12 58 -14 24 -19 45 -15 63 5 22 3 24 -6 12 -9 -12
-10 -10 -6 13 4 15 -2 65 -13 110 -33 140 -43 226 -45 356 -1 126 -1 126 28
156 78 83 209 426 241 632 14 90 12 324 -3 393 -9 38 3 37 -166 26 -49 -3 -92
-9 -95 -12 -3 -4 13 -4 37 0 30 4 41 3 40 -5 -4 -18 42 -26 96 -16 26 4 51 6
54 2 3 -3 5 -25 3 -49 -1 -25 3 -47 9 -51 15 -9 12 -92 -7 -208 -15 -90 -18
-97 -24 -64 -3 20 -8 40 -11 43 -3 3 -21 -13 -39 -35 -34 -43 -49 -51 -49 -25
0 8 -4 13 -9 9 -15 -9 -23 13 -26 69 -2 28 -9 82 -17 121 -13 69 -14 69 -52
78 -27 7 -55 5 -99 -6 -93 -23 -100 -25 -272 -46 -88 -11 -257 -37 -375 -56
-118 -20 -237 -38 -265 -41 l-50 -4 45 15 c25 8 90 24 145 35 158 32 285 61
355 81 36 11 108 28 160 39 103 22 258 68 277 83 10 7 9 12 -2 24 -10 9 -15
34 -15 70 0 31 -4 84 -9 117 -27 170 -41 283 -51 406 -17 208 -58 474 -102
670 -31 135 -121 391 -156 440 -9 14 -24 39 -32 55 -40 84 -189 252 -290 327
-40 30 -115 49 -108 27z m-515 -495 c-3 -3 -12 -4 -19 -1 -8 3 -5 6 6 6 11 1
17 -2 13 -5z m-1196 -239 c-1 -39 3 -54 14 -59 8 -3 15 -1 15 5 0 5 6 4 13 -3
16 -14 13 -32 -20 -153 -34 -123 -38 -129 -52 -66 -6 29 -9 56 -6 61 3 5 1 11
-5 15 -17 10 -12 210 6 253 14 33 16 35 26 18 6 -10 10 -42 9 -71z m798 -84
c33 -17 67 -31 75 -31 8 0 16 -4 18 -9 2 -4 57 -27 123 -51 110 -38 126 -41
194 -37 68 4 76 7 100 35 l26 32 67 -27 c62 -25 69 -30 97 -82 16 -31 36 -83
45 -116 8 -33 22 -65 31 -71 8 -6 12 -14 8 -18 -4 -4 0 -4 9 -1 28 11 55 -94
113 -443 32 -188 52 -371 56 -517 2 -60 -22 -125 -46 -125 -5 0 -37 -13 -71
-29 -33 -16 -96 -36 -140 -45 -43 -9 -113 -28 -154 -42 -66 -22 -76 -23 -86
-9 -14 19 -24 19 -24 0 0 -8 -6 -15 -13 -15 -8 0 -22 -9 -32 -20 -10 -11 -26
-20 -35 -20 -10 0 -32 -10 -51 -23 -37 -25 -85 -45 -109 -46 -8 0 -43 -6 -78
-12 -52 -10 -65 -9 -80 3 -29 25 -85 44 -90 30 -2 -7 -7 -10 -10 -8 -7 4 -206
-7 -347 -19 -51 -4 -81 -1 -110 10 l-40 16 46 -6 c25 -3 56 -1 70 5 21 9 20
10 -11 5 l-35 -4 35 11 c40 14 108 81 117 116 14 57 -19 130 -70 157 -30 15
-118 29 -97 15 13 -8 13 -10 -2 -10 -10 0 -18 4 -18 10 0 5 -7 7 -15 4 -8 -4
-13 -9 -10 -13 2 -4 -2 -8 -10 -8 -11 0 -12 4 -4 14 14 16 -3 17 -19 1 -6 -6
-19 -13 -29 -14 -9 -2 -32 -11 -50 -21 -25 -13 -36 -15 -41 -6 -6 9 -11 7 -20
-7 -7 -11 -8 -20 -3 -20 5 0 11 3 14 8 2 4 2 1 0 -6 -1 -7 2 -23 8 -35 18 -37
-25 19 -68 88 -20 33 -49 76 -64 95 -31 41 -89 149 -89 168 0 7 -4 20 -9 30
-11 20 -60 208 -66 252 -2 16 -6 33 -8 37 -24 39 -28 265 -8 403 11 75 98 364
119 398 5 7 13 -25 20 -78 7 -50 20 -112 28 -138 13 -38 14 -55 5 -95 -14 -60
-14 -94 -1 -81 8 8 53 152 102 332 l21 73 23 -22 c13 -12 27 -19 31 -16 3 4 0
7 -7 7 -7 0 -10 3 -7 7 4 3 18 -6 31 -20 26 -28 52 -36 43 -14 -3 7 3 13 14
13 14 0 16 -3 6 -15 -10 -12 -9 -13 9 -3 18 9 24 8 35 -5 10 -12 10 -14 2 -9
-7 4 -21 3 -30 -3 -14 -8 -9 -9 19 -6 30 4 56 -4 123 -36 46 -22 89 -38 95
-34 5 3 17 -1 26 -9 8 -9 20 -16 25 -16 12 0 12 27 0 34 -5 4 -28 29 -52 57
l-43 51 63 -32 c52 -26 192 -70 223 -70 4 0 8 6 8 14 0 8 -15 17 -37 21 -65
11 -113 28 -107 36 3 5 -3 6 -12 2 -13 -5 -15 -3 -9 7 5 8 4 11 -3 6 -12 -7
-66 14 -95 37 -22 18 -32 58 -12 51 8 -3 12 -11 9 -18 -3 -7 2 -19 11 -26 14
-12 18 -11 27 1 8 11 9 11 4 -3 -7 -23 39 -36 65 -19 10 6 29 11 42 11 13 0
32 9 42 20 21 23 40 27 32 7 -3 -8 -1 -20 5 -28 8 -11 9 -10 4 4 -11 34 3 16
45 -60 34 -60 44 -73 47 -56 2 12 -17 59 -43 107 -52 97 -54 96 64 37z m-628
2 c13 -16 12 -17 -3 -4 -10 7 -18 15 -18 17 0 8 8 3 21 -13z m64 7 c3 -6 -1
-7 -9 -4 -18 7 -21 14 -7 14 6 0 13 -4 16 -10z m202 -118 l33 -40 -68 36 c-70
37 -121 72 -105 72 5 0 15 -6 22 -12 11 -11 13 -10 7 5 -8 26 2 41 19 27 11
-9 12 -6 8 12 -3 16 4 11 24 -19 15 -23 43 -59 60 -81z m986 69 c21 -37 19
-37 -35 -10 -31 16 -38 23 -27 30 8 5 10 9 4 9 -5 0 -3 4 5 10 17 11 29 2 53
-39z m-1892 -756 c23 -159 54 -305 73 -349 21 -47 32 -83 61 -186 14 -52 30
-103 36 -113 10 -18 31 -107 32 -139 1 -10 4 -18 7 -18 3 0 7 -8 8 -17 1 -10
5 -39 8 -65 l6 -48 -39 39 c-150 151 -217 358 -230 712 -5 133 7 424 14 354 2
-16 13 -93 24 -170z m2176 173 c-3 -8 -6 -5 -6 6 -1 11 2 17 5 13 3 -3 4 -12
1 -19z m20 -110 c-3 -8 -6 -5 -6 6 -1 11 2 17 5 13 3 -3 4 -12 1 -19z m414
-52 c24 -89 -1 -199 -64 -284 l-25 -34 -6 44 c-19 137 -25 222 -16 239 15 28
12 52 -5 45 -9 -3 -15 0 -15 10 0 8 5 12 10 9 6 -3 13 1 16 10 5 12 9 13 20 4
12 -10 13 -8 7 6 -5 14 -3 17 10 12 10 -4 17 -2 17 5 0 25 41 -28 51 -66z
m-2394 12 c-3 -8 -6 -5 -6 6 -1 11 2 17 5 13 3 -3 4 -12 1 -19z m143 -467 c0
-11 12 -33 26 -50 14 -17 30 -47 35 -66 6 -20 14 -33 18 -31 8 5 42 -50 60
-97 9 -24 8 -26 -9 -24 -11 2 -23 7 -27 12 -5 4 -2 5 6 0 9 -5 12 -4 7 3 -4 6
-13 9 -21 6 -18 -7 -62 22 -68 46 -3 11 -1 18 4 14 5 -3 9 0 9 5 0 6 -5 11
-12 11 -6 0 -9 2 -6 5 3 3 -8 20 -23 36 -16 17 -27 35 -24 39 3 5 1 11 -4 14
-5 3 -7 20 -6 38 2 18 3 39 4 46 2 20 31 14 31 -7z m2203 -108 c21 -40 21 -45
0 -41 -10 1 -24 -1 -30 -5 -10 -6 -12 0 -9 25 2 18 5 49 6 68 2 32 2 33 9 10
5 -14 15 -40 24 -57z m-2306 -5 c-3 -8 -6 -5 -6 6 -1 11 2 17 5 13 3 -3 4 -12
1 -19z m463 -102 c0 -23 -16 -36 -46 -36 -17 0 -19 31 -2 48 21 21 48 14 48
-12z m-366 -8 c-4 -6 -3 -13 2 -17 5 -3 14 -22 21 -41 12 -34 12 -34 -5 -14
-10 11 -23 19 -30 16 -6 -2 -12 1 -12 7 0 6 5 11 10 11 6 0 10 5 10 10 0 6
-10 10 -22 10 l-23 1 23 12 c12 7 19 17 15 22 -4 4 -2 5 5 1 7 -4 9 -12 6 -18z
m106 -55 c0 -7 -39 17 -46 28 -3 6 5 3 20 -6 14 -10 26 -19 26 -22z m-50 -14
c0 -6 -4 -7 -10 -4 -5 3 -10 11 -10 16 0 6 5 7 10 4 6 -3 10 -11 10 -16z m-50
-28 c0 -9 5 -22 12 -29 9 -9 9 -12 0 -12 -7 0 -12 1 -12 3 0 1 -4 17 -9 35 -6
20 -6 30 0 27 5 -4 9 -14 9 -24z m76 -3 c0 -13 4 -30 8 -38 4 -9 -1 -24 -13
-36 -10 -11 -22 -30 -25 -42 -4 -12 -11 -22 -16 -22 -5 0 2 21 16 47 14 27 22
54 18 63 -4 8 -6 20 -5 25 1 6 -3 5 -10 -2 -9 -9 -9 -16 -1 -25 10 -13 -1 -49
-11 -38 -10 12 -16 71 -7 65 6 -3 10 -2 10 4 0 5 8 12 18 14 9 3 17 5 17 6 0
0 0 -9 1 -21z m-161 2 c-3 -5 -2 -10 2 -10 13 0 14 -42 2 -57 -14 -16 -3 -33
22 -33 24 0 25 -16 2 -29 -17 -10 -17 -10 0 -11 9 0 17 5 17 10 0 6 7 10 16
10 11 0 14 -8 12 -27 -3 -25 -7 -28 -47 -31 l-44 -3 6 88 c6 79 5 86 -8 69 -8
-11 -15 -17 -15 -13 0 12 24 47 33 47 4 0 5 -4 2 -10z m375 -114 c0 -2 -8 -10
-17 -17 -16 -13 -17 -12 -4 4 13 16 21 21 21 13z m-55 -36 c3 -5 1 -10 -4 -10
-6 0 -11 5 -11 10 0 6 2 10 4 10 3 0 8 -4 11 -10z m440 -31 c-91 -18 -286 -38
-377 -38 -103 0 -178 -16 -178 -38 0 -7 -5 -13 -10 -13 -6 0 -15 -11 -20 -25
-7 -17 -17 -25 -34 -25 -41 0 -156 -62 -156 -83 0 -8 -20 -12 -53 -13 -31 0
-66 -8 -87 -19 -19 -11 -37 -19 -40 -20 -14 -1 -30 -18 -25 -26 4 -5 -3 -9
-14 -9 -12 0 -21 -6 -21 -13 0 -21 -48 -111 -66 -124 -13 -9 -15 -21 -11 -49
7 -41 54 -145 71 -156 7 -5 7 -8 1 -8 -6 0 -6 -3 0 -8 6 -4 23 -28 38 -54 15
-25 39 -56 53 -67 14 -11 23 -25 19 -30 -4 -7 1 -8 11 -4 13 5 16 3 11 -10 -4
-10 -2 -16 6 -14 7 1 11 -4 10 -10 -2 -7 0 -12 5 -10 4 1 9 -3 11 -8 10 -23
109 -80 177 -102 41 -13 96 -3 126 22 22 20 64 23 53 4 -3 -5 0 -6 8 -3 8 3
18 0 22 -5 3 -6 11 -9 16 -6 19 12 8 -7 -28 -50 -20 -24 -40 -42 -45 -39 -4 3
-5 -3 -1 -12 5 -14 3 -16 -13 -10 -10 4 -54 21 -96 38 -151 58 -358 234 -444
377 -75 125 -102 184 -129 283 -13 50 -28 94 -33 97 -5 3 -14 27 -20 53 -15
57 -15 67 -1 48 11 -16 10 0 -6 80 l-7 36 149 12 c294 24 323 26 323 13 0 -6
7 -11 15 -11 8 0 15 4 15 9 0 11 51 19 162 24 47 2 75 0 71 -6 -3 -5 2 -5 13
1 31 15 102 23 109 12 5 -8 11 -8 20 0 9 8 41 9 102 4 48 -5 93 -7 98 -5 26 7
136 18 185 19 54 0 55 0 15 -9z m2147 -246 c-39 -113 -77 -195 -87 -185 -5 4
-5 1 -1 -5 9 -16 -57 -130 -91 -157 -15 -11 -38 -34 -52 -50 -14 -17 -42 -48
-62 -70 l-36 -40 -20 45 c-11 24 -30 53 -41 63 -20 17 -20 20 -5 31 17 13 53
9 53 -6 0 -5 9 0 20 11 11 11 25 20 30 20 6 0 10 6 10 13 0 7 14 29 31 50 17
20 28 41 24 47 -4 6 1 7 11 3 11 -4 15 -3 10 5 -7 12 59 92 76 92 17 0 40 30
75 98 38 74 76 133 81 127 2 -1 -10 -43 -26 -92z m-1743 -1 c-1 -17 -3 -21 -6
-9 -2 9 -8 17 -13 17 -5 0 -7 7 -4 15 9 23 24 7 23 -23z m-901 -69 c-2 -27 -8
-39 -21 -41 -17 -3 -18 1 -12 30 9 40 13 48 26 48 6 0 9 -17 7 -37z m242 -28
c0 -39 -3 -45 -21 -45 -19 0 -21 4 -14 37 8 44 13 53 26 53 5 0 9 -20 9 -45z
m0 -202 c0 -20 -3 -24 -11 -16 -7 7 -9 19 -6 27 10 24 17 19 17 -11z m1996
-135 c9 -18 22 -36 28 -40 13 -8 -5 -66 -18 -58 -5 3 -15 -11 -21 -30 -9 -26
-18 -35 -34 -36 -13 -1 -27 -8 -32 -15 -5 -8 -9 -10 -9 -5 0 5 -8 2 -17 -6
-31 -27 -121 -68 -182 -82 -33 -8 -65 -17 -72 -21 -7 -5 -10 -4 -6 2 4 6 0 13
-8 17 -17 6 -21 61 -5 71 6 3 10 14 10 23 0 11 24 29 71 51 39 19 85 44 102
55 54 36 72 31 95 -25 20 -48 42 -65 42 -33 0 9 -11 38 -24 65 l-25 49 21 14
c12 9 25 13 30 10 5 -3 8 -2 7 3 -6 36 27 30 47 -9z m213 -88 c-1 -30 -3 -47
-6 -37 -2 9 -9 15 -14 12 -5 -4 -9 -1 -9 6 0 9 -3 9 -14 0 -11 -10 -20 -10
-36 -1 -22 12 -21 13 21 56 50 51 59 46 58 -36z m-689 -130 c0 -18 -56 -61
-95 -72 -22 -6 -44 -15 -50 -18 -5 -4 -48 -17 -95 -29 -47 -12 -109 -31 -138
-42 -81 -29 -395 -55 -366 -31 17 16 218 56 269 54 29 -1 61 4 75 13 108 63
215 103 315 120 44 7 81 13 83 14 1 0 2 -3 2 -9z m-1640 -111 c0 -5 4 -7 10
-4 5 3 18 1 27 -4 10 -6 13 -11 7 -11 -10 0 -44 -62 -44 -80 0 -21 17 -8 33
24 15 33 18 34 59 29 59 -7 154 -46 150 -62 -1 -7 2 -10 7 -7 5 4 12 2 16 -4
3 -5 1 -10 -5 -10 -7 0 -5 -7 4 -16 22 -21 30 -58 18 -81 -6 -10 -16 -47 -22
-83 -13 -67 -34 -120 -48 -120 -5 0 -19 -10 -32 -22 l-23 -22 8 35 c14 55 15
132 2 161 -8 18 -30 35 -71 54 -34 16 -70 38 -82 51 -28 30 -69 32 -61 3 7
-28 -2 -25 -13 5 -5 14 -16 25 -25 25 -18 0 -29 40 -20 72 15 47 45 78 76 78
16 0 29 -5 29 -11z m2113 -4 c-3 -9 -8 -14 -10 -11 -3 3 -2 9 2 15 9 16 15 13
8 -4z m-2008 -5 c3 -5 1 -10 -4 -10 -6 0 -11 5 -11 10 0 6 2 10 4 10 3 0 8 -4
11 -10z m1635 -50 c5 0 13 -26 19 -57 6 -32 16 -74 21 -92 5 -19 8 -37 5 -39
-7 -7 -115 181 -115 201 0 12 36 12 48 0 7 -7 17 -13 22 -13z m-1984 0 c6 0
25 -13 42 -30 18 -16 38 -30 47 -30 8 0 19 -17 25 -42 7 -24 23 -55 37 -70 21
-22 24 -32 18 -55 -6 -21 -9 -23 -12 -10 -5 18 -23 24 -23 6 0 -5 -4 -8 -9 -5
-4 3 -11 -28 -14 -69 -4 -41 -13 -90 -21 -109 -8 -19 -11 -38 -8 -42 4 -4 2
-4 -5 0 -13 7 -28 -28 -18 -43 7 -12 -29 -73 -38 -64 -4 3 -7 2 -7 -4 0 -6 -9
-13 -21 -16 -14 -4 -18 -10 -13 -18 5 -9 2 -10 -11 -5 -16 6 -16 4 -4 -10 13
-16 12 -16 -9 -5 -24 13 -52 1 -52 -22 0 -6 7 -2 15 9 14 19 15 18 21 -4 5
-18 9 -20 15 -10 6 10 9 10 9 1 0 -18 -56 -66 -93 -80 -18 -6 -52 -12 -77 -12
l-44 -1 62 45 c34 25 62 49 63 53 3 27 11 57 23 80 38 76 69 276 61 392 -14
193 -15 182 9 176 11 -3 26 -6 32 -6z m2264 -9 c0 -11 -5 -23 -11 -27 -8 -4
-8 -9 0 -17 6 -6 11 -35 11 -64 0 -72 -35 -113 -103 -120 -62 -7 -91 12 -106
71 -16 65 -14 110 7 129 10 9 46 19 87 23 39 4 77 10 85 15 23 13 30 11 30
-10z m-366 -13 c8 -30 6 -149 -2 -168 -5 -11 -23 -15 -67 -15 -60 0 -61 0 -57
26 3 17 -4 34 -20 51 -20 22 -27 25 -53 17 -16 -5 -55 -32 -85 -59 -35 -32
-62 -49 -73 -46 -9 2 -15 1 -12 -4 7 -12 -94 -40 -180 -50 -173 -20 -184 -20
-239 14 -47 30 -54 31 -155 30 -102 -1 -159 -14 -263 -59 -28 -11 -24 46 5 71
20 17 39 19 182 20 266 0 357 4 377 15 11 6 62 17 113 25 90 13 256 61 420
122 100 37 101 37 109 10z m-1247 -88 c18 -18 52 -38 75 -46 41 -13 39 -13
-47 -7 -49 3 -97 9 -105 14 -23 11 -25 76 -3 81 24 6 41 -4 80 -42z m1690 3
c-3 -10 -5 -4 -5 12 0 17 2 24 5 18 2 -7 2 -21 0 -30z m-2181 -6 c3 -23 -3
-21 -17 4 -8 17 -8 20 2 17 7 -2 13 -12 15 -21z m-1073 -31 c4 -10 1 -13 -8
-9 -8 3 -12 9 -9 14 7 12 11 11 17 -5z m2861 -48 c-3 -4 0 -9 6 -13 5 -3 10
-14 10 -23 0 -14 -3 -13 -21 4 -15 16 -19 27 -13 50 6 25 8 26 14 9 4 -11 6
-23 4 -27z m359 10 c-2 -18 -4 -41 -4 -51 0 -9 -3 -15 -8 -13 -4 3 -8 -30 -10
-72 -3 -88 -21 -130 -70 -166 l-34 -25 -46 40 c-37 33 -56 64 -98 155 -44 98
-48 111 -28 96 12 -9 20 -21 17 -26 -3 -5 0 -6 5 -3 6 4 24 0 39 -8 69 -36
159 -8 207 64 16 22 29 41 31 41 1 0 1 -15 -1 -32z m-3801 -4 c55 -15 108
-222 73 -284 -8 -14 -14 -20 -15 -13 0 7 -6 10 -14 7 -8 -3 -27 2 -43 11 -15
9 -20 14 -10 11 10 -3 31 1 48 9 21 11 29 12 29 4 0 -7 3 -9 7 -5 15 15 -28
35 -54 25 -13 -5 -29 -9 -34 -9 -16 0 -10 18 9 23 9 3 1 5 -18 6 -19 0 -30 -3
-25 -7 6 -4 9 -30 7 -59 -4 -53 -4 -53 -39 -53 -20 0 -32 4 -28 10 3 5 0 7 -8
4 -19 -7 -92 32 -109 59 -10 15 -13 44 -11 88 4 92 14 116 55 124 18 4 45 20
60 37 28 29 48 31 120 12z m2106 10 l31 -6 -34 -42 c-19 -22 -45 -54 -58 -70
l-23 -29 4 37 c2 20 8 36 13 36 5 0 9 15 9 33 0 48 5 52 58 41z m-2451 -76
c-3 -7 -5 -2 -5 12 0 14 2 19 5 13 2 -7 2 -19 0 -25z m2444 -61 c-23 -40 -53
-85 -69 -98 -15 -14 -37 -36 -48 -50 -24 -29 -70 -69 -60 -51 12 20 3 14 -29
-20 -17 -18 -24 -28 -16 -23 10 5 12 4 7 -4 -4 -6 -11 -9 -16 -6 -5 3 -19 1
-30 -5 -15 -8 -20 -8 -20 3 0 7 5 18 12 25 7 7 9 12 4 12 -4 0 2 14 14 30 12
17 18 30 14 30 -11 0 62 47 84 54 10 4 50 39 88 78 38 40 73 71 77 70 5 -1 6
2 2 8 -4 6 -1 18 6 27 29 35 18 -10 -20 -80z m1353 18 c56 -57 65 -73 69 -127
1 -9 3 -15 5 -13 2 2 16 -10 29 -26 14 -17 31 -28 38 -25 34 13 69 -91 81
-241 8 -109 27 -188 46 -188 24 0 44 -22 67 -70 23 -50 30 -148 9 -127 -17 17
-90 15 -117 -4 -18 -13 -22 -23 -17 -45 4 -22 1 -31 -14 -39 -28 -15 -90 -9
-90 8 0 7 -3 11 -7 9 -15 -8 -107 50 -113 70 -22 84 -226 171 -392 167 -28 0
-48 4 -48 10 -1 16 -29 -36 -30 -54 0 -8 9 -21 20 -28 26 -16 25 -34 -2 -59
-38 -34 -70 -36 -130 -8 -29 14 -67 25 -85 25 -24 0 -42 10 -67 35 -20 19 -37
35 -39 35 -9 0 -124 22 -139 26 -14 4 -16 9 -8 25 8 13 7 19 0 19 -6 0 -13 -7
-16 -15 -4 -8 -13 -15 -21 -15 -13 0 -13 3 1 23 68 93 133 201 185 309 34 70
61 132 61 138 0 29 -27 -14 -95 -151 -41 -82 -77 -149 -80 -149 -3 0 12 34 32
75 20 41 34 78 29 82 -4 4 -13 -1 -19 -12 -13 -22 -95 -194 -100 -209 -2 -6
-13 0 -25 12 -12 12 -34 22 -48 22 -31 0 -94 -58 -94 -87 0 -12 -12 -23 -32
-31 -31 -12 -32 -13 -14 -27 16 -12 17 -17 6 -29 -24 -30 -75 -49 -140 -51
-69 -2 -87 6 -101 42 -13 34 -59 52 -151 59 l-83 6 -58 -56 c-64 -61 -82 -66
-118 -37 -22 18 -23 22 -12 52 15 39 11 46 -12 22 -10 -10 -16 -13 -14 -7 6
16 98 94 125 106 13 6 31 33 45 68 13 34 28 56 34 52 6 -3 5 0 -1 9 -18 21 -2
48 66 114 l62 60 -45 -70 c-84 -132 -139 -250 -108 -231 5 4 32 48 60 100 27
52 67 118 87 146 30 42 34 54 23 61 -12 7 -12 9 1 9 8 0 37 27 65 59 27 33 52
56 55 53 8 -11 32 -13 25 -2 -3 5 -1 18 4 27 6 11 11 13 11 5 0 -7 5 -10 10
-7 6 4 7 11 4 17 -4 7 -2 8 4 4 6 -4 17 3 24 14 31 50 170 107 283 117 59 5
79 2 123 -17 28 -12 52 -26 52 -30 0 -4 17 -16 38 -26 20 -9 31 -19 24 -22 -9
-3 -5 -11 12 -27 47 -44 215 -41 349 6 32 11 60 19 61 17 1 -1 10 -37 20 -78
21 -87 161 -513 179 -544 l12 -21 3 22 c2 12 -21 95 -51 185 -86 256 -125 380
-132 418 -6 33 -4 37 41 70 76 56 85 60 158 59 l68 -1 62 -63z m730 15 c-5 -5
-10 3 -11 18 -1 22 0 24 9 8 6 -10 6 -22 2 -26z m-709 20 c3 -5 1 -10 -4 -10
-6 0 -11 5 -11 10 0 6 2 10 4 10 3 0 8 -4 11 -10z m359 -95 c14 -80 20 -103
32 -122 8 -13 10 -23 5 -23 -21 0 -52 90 -56 162 -4 61 -3 67 5 38 6 -19 12
-44 14 -55z m-1108 -12 c-6 -6 -36 9 -36 18 0 5 9 4 20 -3 10 -7 18 -14 16
-15z m1100 -132 c16 -28 17 -33 4 -41 -13 -8 -12 -10 3 -10 9 0 17 -4 17 -9 0
-5 10 -7 23 -5 16 4 14 1 -8 -10 l-30 -14 28 1 c25 2 30 -3 46 -50 10 -29 17
-53 15 -53 -18 0 -39 20 -55 52 -11 21 -26 41 -34 45 -8 3 -13 8 -11 12 2 3
-6 6 -17 7 -12 0 -35 4 -51 9 -26 7 -28 6 -21 -14 5 -17 3 -20 -10 -15 -11 5
-18 0 -23 -17 l-6 -24 -7 25 c-16 57 -11 75 29 98 21 12 47 37 58 57 18 35 19
35 25 11 4 -13 15 -38 25 -55z m-3160 2 c-11 -11 -17 4 -9 23 7 18 8 18 11 1
2 -10 1 -21 -2 -24z m-661 9 c-3 -3 -11 0 -18 7 -9 10 -8 11 6 5 10 -3 15 -9
12 -12z m4189 2 c3 -8 2 -12 -4 -9 -6 3 -10 1 -10 -6 0 -7 -2 -10 -5 -7 -5 5
4 38 10 38 2 0 6 -7 9 -16z m-4144 -8 c0 -2 -7 -7 -16 -10 -8 -3 -12 -2 -9 4
6 10 25 14 25 6z m4279 -32 c79 -20 137 -48 150 -72 11 -21 5 -32 -26 -50 -19
-10 -23 -10 -23 2 0 41 -76 53 -163 26 -58 -18 -93 -17 -81 2 4 6 1 14 -5 18
-8 5 -1 14 23 28 36 21 47 42 24 42 -9 0 -8 4 2 10 20 13 23 13 99 -6z m-2754
-64 c1 -10 -2 -17 -7 -14 -4 3 -8 -1 -8 -8 0 -9 -3 -9 -10 2 -7 10 -5 18 5 26
8 6 13 14 10 17 -3 4 -2 5 2 2 4 -3 7 -14 8 -25z m-815 -10 c0 -5 -4 -10 -10
-10 -5 0 -10 5 -10 10 0 6 5 10 10 10 6 0 10 -4 10 -10z m1023 -30 c-9 -16
-23 -30 -29 -30 -7 0 -14 -6 -17 -13 -3 -7 -24 -26 -48 -42 -24 -17 -48 -35
-52 -42 -10 -17 -60 -10 -94 12 -20 13 -24 20 -13 23 8 3 16 0 18 -6 2 -7 8
-12 13 -12 4 0 6 7 3 15 -5 12 2 15 29 15 20 0 39 -4 42 -10 3 -5 10 -10 15
-10 18 0 106 86 102 101 -3 12 -2 12 6 0 8 -11 11 -9 17 8 3 11 11 21 16 21 6
0 2 -13 -8 -30z m-1328 10 c3 -5 2 -10 -4 -10 -5 0 -13 5 -16 10 -3 6 -2 10 4
10 5 0 13 -4 16 -10z m1122 -22 c-3 -8 -6 -5 -6 6 -1 11 2 17 5 13 3 -3 4 -12
1 -19z m-711 -3 c-8 -8 -18 -15 -22 -15 -3 0 -1 7 6 15 7 8 17 15 22 15 5 0 3
-7 -6 -15z m-53 -2 c-13 -2 -33 -2 -45 0 -13 2 -3 4 22 4 25 0 35 -2 23 -4z
m753 -14 c19 -21 19 -22 -3 -15 -15 5 -23 3 -23 -4 0 -6 -5 -8 -10 -5 -8 5 -8
11 0 20 8 10 7 14 -2 18 -9 4 -8 6 3 6 9 1 24 -9 35 -20z m-56 -31 c0 -6 -9
-8 -20 -5 -11 3 -20 1 -20 -4 0 -5 -5 -9 -12 -9 -6 0 -4 8 6 19 18 19 46 18
46 -1z m-257 -88 c-14 -6 -32 -6 -45 0 -19 7 -15 9 22 9 37 0 41 -2 23 -9z
m765 -206 c12 -8 20 -19 17 -24 -6 -10 -22 -5 -95 29 l-45 21 50 -6 c28 -3 60
-12 73 -20z m1188 -9 c32 -9 83 -27 112 -42 50 -25 58 -38 53 -80 -1 -6 3 -14
9 -18 5 -3 10 -15 10 -26 0 -21 26 -26 33 -6 6 15 83 -26 79 -43 -1 -6 3 -8 9
-4 6 3 15 0 20 -7 5 -9 27 -14 63 -13 67 0 99 23 94 66 -2 17 3 33 12 38 18
12 70 13 70 2 0 -16 -32 -52 -41 -47 -5 3 -6 -2 -2 -11 5 -13 3 -15 -7 -9 -10
6 -12 4 -7 -9 4 -10 7 -22 7 -27 0 -5 5 -9 11 -9 5 0 7 5 3 12 -4 7 -3 8 4 4
7 -4 12 0 13 11 0 16 1 16 9 -2 12 -27 12 -43 0 -25 -6 10 -10 11 -10 3 0 -20
-28 -15 -40 7 -10 20 -11 20 -45 -2 -40 -27 -38 -36 4 -15 25 13 31 13 35 1 3
-8 13 -14 23 -14 10 -1 4 -7 -16 -16 -19 -8 -31 -17 -28 -21 4 -3 13 0 21 7 9
6 20 10 26 8 7 -2 -5 -11 -25 -21 -20 -10 -34 -13 -30 -7 3 5 -1 10 -10 10 -9
0 -14 -3 -12 -7 3 -5 -6 -9 -19 -9 -13 -1 -24 2 -24 7 0 5 -8 9 -17 9 -10 0
-37 18 -61 40 -43 40 -71 51 -73 28 0 -7 -4 -4 -9 7 -7 18 -8 19 -15 3 -4 -10
-15 -18 -26 -18 -10 0 -23 8 -28 18 -9 14 -12 14 -20 3 -6 -9 -11 -10 -15 -3
-4 6 -13 9 -21 5 -8 -3 -15 0 -15 7 0 34 -191 -30 -246 -81 -21 -20 -21 -20
-38 6 -18 28 -17 29 65 99 27 23 24 71 -5 101 -15 15 -25 39 -28 70 l-6 47 48
-6 c26 -3 73 -13 106 -21z m-643 -4 c73 -13 134 -40 115 -52 -7 -5 -26 -9 -43
-9 -91 -1 -225 -53 -225 -87 0 -7 -4 -13 -9 -13 -12 0 -21 -39 -10 -46 9 -5 7
-23 -7 -74 -7 -25 -7 -25 14 -6 12 11 22 25 22 33 0 8 5 11 12 7 8 -5 9 -2 5
9 -5 14 -2 16 17 11 13 -3 27 -1 30 5 7 11 88 -21 94 -38 2 -5 9 -8 17 -5 7 3
16 0 21 -7 5 -8 3 -10 -6 -4 -8 5 -11 3 -8 -6 7 -20 -18 -66 -44 -80 -31 -17
-126 -17 -165 0 -24 10 -32 19 -30 35 2 19 -3 21 -46 22 -30 0 -52 6 -58 15
-7 11 -9 11 -9 1 0 -9 -7 -11 -19 -7 -11 3 -22 1 -26 -5 -3 -5 -28 -10 -54
-10 -26 0 -53 -6 -60 -12 -8 -7 -12 -8 -9 -3 17 31 48 105 48 113 0 6 12 13
28 17 51 12 187 83 230 120 34 30 42 33 42 18 1 -17 1 -17 15 1 8 11 15 33 15
48 0 24 3 28 23 23 12 -2 48 -9 80 -14z m-803 -30 c0 -12 -20 -25 -27 -18 -7
7 6 27 18 27 5 0 9 -4 9 -9z m59 -65 c-2 -2 -24 -13 -47 -25 -24 -13 -41 -25
-38 -28 3 -3 11 -1 18 5 7 5 30 15 52 20 35 10 40 9 70 -18 17 -17 37 -30 44
-30 20 0 14 -14 -24 -51 -20 -18 -50 -58 -66 -86 -16 -29 -34 -56 -39 -59 -5
-3 -9 -16 -9 -28 0 -13 -7 -29 -15 -36 -8 -7 -15 -19 -15 -26 0 -20 -49 -36
-86 -30 -36 7 -83 51 -62 59 7 2 1 8 -14 12 -35 9 -36 32 -4 102 28 60 10 64
-24 6 -23 -39 -28 -74 -17 -114 l7 -27 -43 10 c-62 14 -120 49 -131 80 -12 33
5 74 55 139 71 89 207 157 291 146 31 -4 40 -1 49 14 10 19 11 19 31 -6 11
-14 19 -28 17 -29z m160 -107 l32 -11 -2 -110 c-1 -88 2 -112 15 -127 34 -37
25 -38 -106 -6 -38 10 -66 21 -63 25 3 4 -9 13 -25 19 -17 5 -30 13 -30 17 0
16 110 170 146 203 1 1 15 -4 33 -10z m116 -41 c-12 -62 -26 -96 -40 -102 -17
-6 -20 30 -9 97 6 31 11 37 31 37 22 0 24 -3 18 -32z m1147 -34 c23 3 49 1 59
-4 17 -10 34 -41 21 -39 -20 3 -25 -2 -12 -12 12 -9 13 -12 1 -16 -8 -3 -9 -8
-3 -12 14 -9 -19 -104 -62 -178 -18 -32 -41 -80 -50 -107 -10 -28 -26 -56 -37
-64 -11 -8 -18 -20 -15 -28 3 -8 -3 -23 -13 -33 -17 -17 -32 -54 -37 -91 -1
-8 -7 -28 -13 -43 -6 -16 -11 -35 -11 -44 0 -29 29 6 42 51 l11 41 8 -30 c15
-64 10 -113 -13 -135 -12 -11 -26 -20 -30 -20 -5 0 -13 -12 -18 -26 -7 -18
-15 -24 -26 -20 -11 4 -15 2 -11 -7 4 -10 -2 -13 -19 -9 -20 4 -23 1 -17 -14
5 -13 3 -16 -8 -12 -49 20 -49 20 -43 4 3 -9 10 -16 15 -16 5 0 9 -5 9 -10 0
-6 -11 -8 -25 -4 -15 4 -25 2 -25 -5 0 -22 -50 -12 -59 11 -12 31 -9 32 33 17
37 -13 53 -9 41 11 -6 9 -10 9 -16 -1 -6 -9 -9 -10 -9 -2 0 6 -14 11 -32 10
-25 -2 -32 -6 -30 -19 2 -10 -1 -18 -5 -19 -4 0 -16 -2 -25 -4 -15 -3 -16 0
-8 16 6 10 15 19 21 19 14 0 59 102 98 220 18 52 40 106 50 120 9 14 32 86 51
160 18 74 35 139 37 144 5 7 11 60 16 139 3 35 71 81 99 66 10 -6 37 -8 60 -5z
m-1032 -58 c0 -3 11 -80 25 -172 26 -177 42 -241 62 -262 12 -12 53 -137 53
-161 0 -6 4 -19 9 -29 5 -9 17 -37 27 -62 10 -25 29 -55 41 -67 l23 -22 0 22
c0 20 2 19 20 -8 l20 -30 -26 -21 c-25 -20 -74 -30 -74 -14 0 4 10 12 23 18
17 8 18 11 5 11 -9 1 -20 6 -24 13 -4 6 -3 8 2 5 6 -3 16 -2 24 4 12 7 9 9
-10 9 -19 0 -22 2 -10 10 12 8 12 10 -3 16 -9 3 -15 9 -12 14 11 17 -88 -16
-112 -37 -24 -23 -25 -25 -7 -38 23 -16 13 -29 -15 -20 -13 4 -18 11 -14 22 4
10 2 14 -4 10 -13 -8 -30 40 -35 93 -1 19 -17 62 -34 95 -37 69 -48 111 -34
120 5 3 10 -3 10 -14 0 -21 14 -28 24 -13 2 4 1 28 -4 52 -42 215 -54 272 -71
320 -22 62 -24 105 -7 116 22 14 128 30 128 20z m820 -40 c0 -19 -9 -28 -43
-41 -24 -9 -47 -15 -53 -13 -5 2 -28 -3 -51 -11 -24 -8 -55 -11 -75 -7 -33 7
-85 42 -76 52 3 3 43 0 89 -6 46 -7 89 -12 94 -11 42 1 72 12 90 34 25 32 25
32 25 3z m-644 -716 c0 -8 -3 -23 -8 -32 -7 -14 -5 -16 8 -11 14 5 14 3 2 -16
-9 -15 -14 -18 -16 -7 -3 14 -32 26 -62 26 -13 0 -13 -1 0 -10 11 -7 12 -10 2
-10 -20 0 -44 28 -36 42 5 8 9 8 13 -3 5 -13 12 -14 51 -2 l45 12 -42 -5 c-49
-6 -57 7 -15 23 35 14 57 12 58 -7z m645 -58 c-5 -9 -16 -26 -25 -37 -15 -20
-15 -20 -16 2 0 12 9 27 20 33 11 6 17 16 14 22 -4 7 -3 8 4 4 8 -5 9 -13 3
-24z m-711 -22 c0 -5 -7 -7 -15 -4 -8 4 -15 8 -15 10 0 2 7 4 15 4 8 0 15 -4
15 -10z"/>
<path d="M3760 4788 c0 -28 32 -78 58 -92 l27 -15 -25 -10 c-17 -6 -19 -10 -8
-10 10 -1 26 9 38 21 11 12 20 16 20 10 0 -7 8 -12 18 -12 15 0 15 2 2 11 -12
9 -12 10 3 5 10 -3 24 -6 30 -6 7 0 6 -4 -3 -10 -22 -14 -5 -23 48 -26 26 -1
41 0 35 3 -7 2 -13 11 -13 18 0 7 -8 16 -17 18 -14 4 -13 5 4 6 32 2 73 22 73
37 0 9 -11 9 -52 -2 -63 -16 -68 -17 -48 -4 13 8 12 10 -2 10 -10 0 -18 -5
-18 -10 0 -7 -6 -7 -20 0 -10 6 -25 9 -32 8 -7 -2 -12 2 -11 7 1 6 -6 11 -15
12 -34 3 -51 9 -72 28 -16 15 -20 15 -20 3z m210 -118 c-20 -13 -33 -13 -25 0
3 6 14 10 23 10 15 0 15 -2 2 -10z"/>
<path d="M3257 4673 c-2 -5 -7 -21 -11 -36 -4 -15 -11 -25 -16 -22 -5 3 -7 -1
-4 -9 7 -18 -10 -52 -44 -88 -19 -21 -35 -28 -64 -28 -44 0 -51 -17 -10 -25
15 -4 35 -11 46 -16 10 -6 16 -6 12 -1 -3 5 13 26 34 47 22 22 40 45 40 52 0
7 5 13 12 13 6 0 8 3 5 7 -4 3 -3 11 2 17 14 18 24 96 12 96 -5 0 -12 -3 -14
-7z"/>
<path d="M3201 4591 c-8 -5 -9 -11 -3 -15 5 -3 12 1 16 9 6 17 6 18 -13 6z"/>
<path d="M3280 4580 c0 -5 5 -10 11 -10 5 0 7 5 4 10 -3 6 -8 10 -11 10 -2 0
-4 -4 -4 -10z"/>
<path d="M3160 4552 c-13 -14 -12 -15 2 -9 9 3 18 1 21 -6 2 -6 6 -7 9 -2 3 6
1 15 -6 21 -9 8 -16 7 -26 -4z"/>
<path d="M3200 4485 c-13 -14 -19 -25 -13 -25 6 0 13 7 17 15 3 8 10 15 16 15
8 0 8 -6 0 -20 -7 -14 -7 -20 0 -20 5 0 10 6 11 13 0 6 2 20 4 30 5 24 -7 21
-35 -8z"/>
<path d="M4096 4405 c-22 -30 -43 -52 -48 -49 -13 8 -9 16 5 8 9 -5 9 -4 0 6
-9 10 -15 10 -27 -3 -20 -20 -21 -33 -1 -17 18 15 19 1 1 -22 -10 -14 -15 -15
-26 -5 -10 10 -10 8 -1 -10 10 -19 15 -21 37 -13 17 7 23 7 19 0 -3 -6 -1 -10
5 -10 6 0 -5 -16 -25 -35 -40 -41 -43 -49 -14 -40 13 5 19 3 15 -3 -7 -11 13
-29 31 -28 7 1 36 19 65 42 121 92 183 113 245 81 41 -22 68 -5 34 22 -21 16
-21 19 -7 24 10 4 14 12 11 17 -10 16 -194 10 -228 -7 -16 -8 -37 -16 -47 -18
-10 -2 -29 -14 -42 -27 -21 -21 -23 -21 -26 -4 -4 20 8 36 29 39 21 4 39 17
39 29 0 6 -6 5 -16 -3 -10 -8 -8 0 7 25 36 61 9 62 -35 1z"/>
<path d="M4077 4433 c-4 -3 -7 -11 -7 -17 0 -6 5 -5 12 2 6 6 9 14 7 17 -3 3
-9 2 -12 -2z"/>
<path d="M4089 4333 c-13 -16 -12 -17 4 -4 16 13 21 21 13 21 -2 0 -10 -8 -17
-17z"/>
<path d="M4025 4280 c-3 -5 -1 -10 4 -10 6 0 11 5 11 10 0 6 -2 10 -4 10 -3 0
-8 -4 -11 -10z"/>
<path d="M4418 4253 c7 -3 16 -2 19 1 4 3 -2 6 -13 5 -11 0 -14 -3 -6 -6z"/>
<path d="M4373 4243 c4 -6 -13 -16 -41 -23 -96 -26 -130 -53 -162 -127 -28
-67 41 -133 139 -133 28 0 51 4 51 9 0 5 25 12 55 16 43 5 63 14 87 37 29 29
30 32 26 96 -8 100 -19 118 -76 119 -26 1 -56 4 -66 9 -13 5 -17 4 -13 -3z
m77 -61 c0 -37 -54 -59 -66 -27 -11 27 4 45 36 45 22 0 30 -5 30 -18z"/>
<path d="M3340 4225 c-14 -8 -20 -14 -14 -15 5 0 19 7 30 15 24 18 16 19 -16
0z"/>
<path d="M3361 4209 c-23 -12 -39 -15 -46 -9 -7 6 -15 7 -18 3 -26 -25 28 -87
77 -89 28 -2 29 -1 11 12 -11 8 -21 10 -25 5 -9 -15 -30 3 -35 28 l-4 22 32
-21 c58 -38 95 -53 114 -46 17 7 17 8 -2 21 -11 8 -27 20 -35 28 -8 8 -28 18
-45 22 -29 7 -30 7 -7 18 12 5 22 14 22 19 0 4 -1 7 -2 7 -2 -1 -18 -10 -37
-20z"/>
<path d="M3335 4150 c3 -5 11 -10 16 -10 6 0 7 5 4 10 -3 6 -11 10 -16 10 -6
0 -7 -4 -4 -10z"/>
<path d="M3127 4078 c-50 -27 -64 -53 -37 -70 11 -7 20 -16 20 -21 0 -4 -4 -6
-8 -3 -5 3 -9 -1 -9 -9 0 -8 4 -15 9 -15 5 0 6 -5 3 -10 -4 -6 -11 -7 -17 -4
-7 5 -8 2 -3 -5 5 -9 13 -7 31 10 17 16 24 18 25 8 0 -11 2 -10 7 2 4 9 24 30
44 48 36 31 37 32 95 21 32 -5 71 -13 87 -16 25 -6 27 -4 22 13 -6 17 -3 20
19 15 32 -6 33 15 1 28 -23 8 -197 31 -233 29 -10 0 -35 -10 -56 -21z"/>
<path d="M3170 3970 c-9 -6 -10 -10 -3 -10 6 0 15 5 18 10 8 12 4 12 -15 0z"/>
<path d="M2770 3994 c0 -13 18 -39 24 -34 2 3 -2 14 -10 24 -8 11 -14 16 -14
10z"/>
<path d="M5302 2904 c-12 -8 -22 -20 -22 -25 0 -14 36 7 44 26 7 19 6 19 -22
-1z"/>
<path d="M5343 2825 c-3 -9 -3 -18 -1 -21 3 -3 8 4 11 16 6 23 -1 27 -10 5z"/>
<path d="M2865 2060 c-4 -12 -1 -28 6 -36 10 -12 8 -18 -9 -35 -12 -11 -22
-15 -22 -10 0 5 5 13 10 16 6 3 10 11 10 16 0 6 -7 4 -15 -5 -8 -8 -15 -19
-15 -25 0 -6 -7 -8 -15 -5 -9 4 -15 0 -15 -10 0 -19 -1 -19 36 -6 38 14 58 44
44 70 -5 10 -7 26 -4 34 3 9 4 16 1 16 -3 0 -9 -9 -12 -20z"/>
<path d="M2738 1932 l-17 -37 19 24 c11 13 20 29 20 37 0 21 -3 17 -22 -24z"/>
<path d="M4680 2398 c0 -42 13 -78 22 -62 8 15 -3 104 -13 104 -5 0 -9 -19 -9
-42z"/>
<path d="M1370 2060 c-12 -8 -9 -9 12 -8 15 1 24 6 22 10 -7 10 -16 10 -34 -2z"/>
<path d="M3905 2210 c-3 -5 1 -10 10 -10 9 0 13 5 10 10 -3 6 -8 10 -10 10 -2
0 -7 -4 -10 -10z"/>
<path d="M4828 2010 c-11 -41 -41 -390 -34 -397 13 -13 19 11 33 134 13 126
15 313 1 263z"/>
<path d="M3461 1892 c-7 -13 -23 -59 -36 -103 -13 -44 -28 -85 -32 -92 -4 -6
-8 -19 -10 -27 -1 -8 -5 -30 -8 -49 -5 -25 -3 -32 7 -29 7 3 32 69 55 149 42
141 51 199 24 151z"/>
<path d="M3305 1849 c-68 -86 -86 -119 -66 -119 11 0 121 145 121 160 0 20
-16 8 -55 -41z"/>
<path d="M4306 1884 c-14 -37 0 -276 15 -252 12 18 11 255 0 262 -5 3 -12 -1
-15 -10z"/>
<path d="M5060 1555 c0 -8 5 -15 10 -15 6 0 10 7 10 15 0 8 -4 15 -10 15 -5 0
-10 -7 -10 -15z"/>
<path d="M2928 1793 c6 -2 18 -2 25 0 6 3 1 5 -13 5 -14 0 -19 -2 -12 -5z"/>
<path d="M4906 1262 c-2 -4 -1 -14 4 -22 7 -11 9 -9 7 8 -1 24 -3 26 -11 14z"/>
<path d="M4990 1245 c-24 -13 -24 -14 -2 -12 12 1 22 4 22 8 0 4 8 10 18 12
12 3 12 5 2 5 -8 1 -26 -5 -40 -13z"/>
<path d="M4507 1229 c7 -7 15 -10 18 -7 3 3 -2 9 -12 12 -14 6 -15 5 -6 -5z"/>
<path d="M4615 1230 c3 -5 -2 -10 -12 -10 -15 0 -16 -2 -3 -10 9 -6 17 -5 21
2 4 6 12 7 18 4 6 -4 11 -3 11 2 0 6 -7 13 -16 16 -22 8 -26 8 -19 -4z"/>
<path d="M4443 1213 c-7 -2 -13 -9 -13 -15 0 -7 5 -7 13 1 8 6 18 7 22 3 5 -4
5 -1 1 6 -4 6 -8 12 -9 11 -1 0 -8 -3 -14 -6z"/>
<path d="M4160 379 c0 -5 5 -7 10 -4 6 3 10 8 10 11 0 2 -4 4 -10 4 -5 0 -10
-5 -10 -11z"/>
<path d="M1816 5901 c-11 -12 -15 -35 -13 -80 2 -55 6 -67 34 -97 46 -49 84
-45 87 10 1 13 7 19 16 17 45 -13 77 -12 89 3 16 19 6 53 -19 61 -14 4 -18 13
-15 35 6 50 -14 65 -94 66 -54 1 -73 -2 -85 -15z m94 -81 c0 -28 -27 -45 -45
-30 -19 16 -19 25 0 44 19 18 45 10 45 -14z"/>
<path d="M2420 5781 c0 -25 54 -51 109 -52 l56 0 -82 -27 c-84 -28 -101 -37
-90 -48 8 -8 180 53 192 69 6 7 29 21 53 31 26 12 39 23 33 29 -5 5 -17 4 -31
-3 -12 -6 -50 -16 -83 -20 -52 -8 -68 -6 -105 10 -51 23 -52 23 -52 11z"/>
<path d="M2330 5636 c0 -34 85 -63 168 -57 41 2 23 21 -21 21 -27 0 -63 10
-93 25 -58 29 -54 29 -54 11z"/>
<path d="M962 5328 c-29 -32 -44 -76 -36 -111 3 -17 32 -57 63 -91 102 -110
135 -163 165 -266 33 -114 71 -187 106 -204 51 -26 114 -29 157 -6 22 11 54
22 70 24 51 7 127 36 151 59 32 30 62 90 62 125 0 47 -75 132 -116 132 -32 0
-64 -34 -64 -68 0 -15 -4 -42 -10 -61 -7 -24 -6 -42 5 -67 9 -23 10 -36 3 -40
-6 -4 -13 -2 -17 4 -3 5 -42 9 -87 8 -95 -1 -126 14 -144 71 -7 21 -25 58 -40
83 -14 25 -37 79 -49 120 -12 41 -29 92 -36 113 -8 20 -15 52 -15 71 0 20 -10
46 -27 69 -47 60 -103 74 -141 35z"/>
<path d="M2070 5233 c1 -26 44 -245 56 -285 11 -37 27 -18 21 25 -10 72 -37
201 -47 219 -6 10 -10 25 -10 33 0 8 -4 15 -10 15 -5 0 -10 -3 -10 -7z"/>
<path d="M1753 4637 c-41 -35 -63 -40 -90 -21 -35 22 -55 11 -52 -29 3 -34 -6
-57 -21 -57 -6 0 -21 23 -35 50 -26 52 -56 65 -83 38 -13 -13 -16 -74 -4 -80
4 -1 21 -20 36 -40 l28 -38 -29 0 c-43 0 -85 -36 -81 -69 2 -22 9 -27 37 -29
52 -5 78 5 88 35 l9 26 30 -46 c42 -68 84 -76 84 -16 0 17 -11 45 -25 63 -34
45 -33 59 5 51 47 -10 70 2 71 38 l2 32 4 -30 c11 -70 49 -73 92 -7 44 68 42
116 -6 141 -28 14 -27 15 -60 -12z"/>
<path d="M2477 4498 c-2 -7 -1 -22 4 -33 6 -16 8 -14 8 13 1 33 -4 41 -12 20z"/>
<path d="M1701 4314 c-25 -28 -95 -61 -150 -70 -20 -3 -52 -18 -70 -33 -31
-25 -33 -31 -27 -65 10 -52 39 -75 170 -140 125 -62 117 -60 169 -45 30 8 37
15 37 34 0 19 -9 29 -37 41 -92 39 -175 62 -218 61 -36 -2 -50 2 -61 18 -12
17 -12 20 1 28 9 4 23 7 33 5 9 -2 24 4 33 13 27 27 128 61 161 54 38 -9 78
17 78 51 0 70 -74 100 -119 48z"/>
<path d="M2681 4303 c-1 -6 -4 -20 -7 -30 -5 -17 -5 -17 6 0 6 10 9 23 6 30
-3 9 -5 9 -5 0z"/>
<path d="M2690 4261 c0 -6 4 -13 10 -16 6 -3 7 1 4 9 -7 18 -14 21 -14 7z"/>
<path d="M2036 4131 c-3 -4 -34 -19 -68 -31 -80 -29 -86 -35 -80 -66 10 -54
80 -53 140 3 41 38 52 31 26 -18 -8 -17 -13 -37 -10 -45 9 -24 45 -16 60 14 8
16 22 34 30 41 20 17 20 60 0 89 -11 16 -25 22 -54 22 -21 0 -41 -4 -44 -9z"/>
<path d="M2686 4037 c3 -10 9 -15 12 -12 3 3 0 11 -7 18 -10 9 -11 8 -5 -6z"/>
<path d="M2660 3905 c0 -5 5 -17 10 -25 5 -8 10 -10 10 -5 0 6 -5 17 -10 25
-5 8 -10 11 -10 5z"/>
<path d="M1071 3733 c6 -10 29 -31 50 -48 22 -16 52 -40 67 -51 53 -42 273
-144 310 -144 21 0 13 20 -11 29 -68 26 -257 127 -328 175 -85 59 -107 68 -88
39z"/>
<path d="M1470 2480 c-8 -5 -17 -7 -20 -5 -3 2 -17 -5 -30 -16 -21 -16 -23
-20 -10 -29 13 -8 12 -10 -2 -10 -10 0 -18 -3 -19 -7 0 -5 -2 -18 -3 -31 -2
-13 10 -41 26 -63 27 -38 30 -39 81 -36 61 4 91 26 102 75 15 69 -73 155 -125
122z m-33 -155 c0 -8 -4 -15 -9 -15 -10 0 -11 14 -1 23 9 10 10 9 10 -8z"/>
<path d="M5848 2330 c-107 -10 -148 -19 -148 -32 0 -7 16 -9 48 -4 26 4 108
11 182 17 152 11 201 30 75 28 -44 -1 -115 -5 -157 -9z"/>
<path d="M1825 2321 c-3 -5 -1 -12 5 -16 5 -3 10 1 10 9 0 18 -6 21 -15 7z"/>
<path d="M2190 2260 c0 -13 180 -13 200 0 10 7 -19 10 -92 10 -66 0 -108 -4
-108 -10z"/>
<path d="M5873 2158 c-90 -39 -122 -65 -65 -52 49 11 174 73 167 84 -3 5 -7
10 -8 9 -1 0 -44 -19 -94 -41z"/>
<path d="M2478 2082 c-37 -8 -69 -21 -72 -29 -4 -10 -1 -13 12 -9 9 2 37 7 62
11 61 9 110 25 110 36 0 12 -31 10 -112 -9z"/>
<path d="M1775 1990 c-7 -12 2 -12 30 0 19 8 19 9 -2 9 -12 1 -25 -3 -28 -9z"/>
<path d="M1973 1947 c-3 -5 -2 -11 1 -14 3 -4 6 0 6 8 0 10 3 10 8 3 5 -9 10
-8 19 1 10 11 9 13 -8 12 -11 -1 -23 -5 -26 -10z"/>
<path d="M2192 1938 c2 -6 11 -13 19 -16 12 -3 12 -2 0 6 -11 8 -11 10 0 15
10 4 8 6 -4 6 -10 1 -17 -4 -15 -11z"/>
<path d="M6100 1929 c-96 -13 -114 -19 -103 -30 6 -6 38 -5 88 2 43 6 106 8
139 4 56 -5 59 -5 42 10 -11 8 -29 15 -40 15 -12 0 -30 2 -41 4 -11 2 -49 0
-85 -5z"/>
<path d="M1687 1779 c7 -7 15 -10 18 -7 3 3 -2 9 -12 12 -14 6 -15 5 -6 -5z"/>
<path d="M5228 1783 c6 -2 18 -2 25 0 6 3 1 5 -13 5 -14 0 -19 -2 -12 -5z"/>
<path d="M5228 1763 c7 -3 16 -2 19 1 4 3 -2 6 -13 5 -11 0 -14 -3 -6 -6z"/>
<path d="M2468 1723 c7 -3 16 -2 19 1 4 3 -2 6 -13 5 -11 0 -14 -3 -6 -6z"/>
<path d="M2498 1677 c-31 -12 -37 -27 -12 -27 21 0 54 18 54 30 0 12 -6 11
-42 -3z"/>
<path d="M2158 1663 c7 -3 16 -2 19 1 4 3 -2 6 -13 5 -11 0 -14 -3 -6 -6z"/>
<path d="M6358 1665 c-8 -8 -142 -25 -288 -36 -224 -18 -810 -43 -720 -32 62
8 58 23 -5 23 -71 -1 -185 -23 -168 -33 35 -22 426 -36 503 -18 36 8 36 8 37
-28 2 -54 14 -121 22 -121 3 0 7 -151 9 -335 2 -238 6 -343 15 -362 10 -24 13
-10 17 112 3 77 7 119 8 94 1 -25 9 -54 17 -65 15 -17 15 -13 11 51 -3 39 -8
131 -11 205 -3 74 -8 161 -11 192 l-6 57 70 35 c39 20 73 40 76 45 13 20 -15
22 -42 3 -15 -11 -46 -29 -69 -41 l-43 -21 0 29 c0 26 8 36 53 64 28 18 67 39
85 46 17 7 32 17 32 22 0 19 -39 7 -101 -30 -35 -21 -66 -37 -68 -35 -10 9 33
54 76 80 44 26 58 29 160 32 105 4 111 3 108 -14 -6 -31 -24 -423 -30 -649 -4
-138 -2 -206 4 -200 14 14 31 241 31 414 0 185 19 454 34 463 9 6 183 24 198
20 10 -2 18 27 9 32 -5 3 -10 4 -13 1z m-528 -81 c0 -8 -32 -33 -42 -34 -5 0
-8 9 -8 20 0 15 7 20 25 20 14 0 25 -3 25 -6z m-53 -536 c-2 -24 -4 -5 -4 42
0 47 2 66 4 43 2 -24 2 -62 0 -85z"/>
<path d="M2305 1649 c-142 -25 -203 -31 -395 -39 -173 -7 -430 -13 -856 -20
-19 -1 -19 -1 0 -12 20 -12 541 -13 680 -2 72 6 79 5 73 -10 -4 -10 -7 -20 -7
-22 0 -2 -53 -4 -117 -4 -65 0 -125 -5 -133 -10 -10 -7 6 -10 56 -10 39 0 98
-3 132 -6 l60 -7 4 -59 c2 -42 -1 -63 -12 -73 -12 -13 -12 -15 3 -15 15 0 18
-8 17 -47 -2 -78 20 -356 27 -349 3 2 5 52 5 110 0 105 0 106 30 131 16 14 34
23 39 20 5 -4 6 2 2 11 -5 14 -3 16 12 10 11 -4 16 -4 13 0 -7 6 8 23 51 59
14 11 21 15 18 9 -4 -7 1 -18 10 -25 15 -12 16 -12 8 1 -18 28 -13 39 36 80
53 45 59 56 30 56 -11 0 -17 -4 -15 -8 3 -4 -9 -14 -27 -23 -17 -9 -29 -13
-26 -7 10 14 11 75 3 100 -7 22 -6 22 71 22 l78 0 -4 -292 c-3 -274 9 -498 28
-498 4 0 5 178 3 395 l-4 395 53 1 54 1 -47 10 c-32 7 -48 15 -48 26 0 13 -3
12 -20 -3 -16 -15 -30 -17 -82 -11 -35 4 -114 6 -175 6 -108 -1 -113 0 -113
19 0 19 6 21 78 22 144 2 219 8 343 29 68 11 128 20 132 20 15 0 2 23 -14 25
-7 1 -32 -2 -54 -6z m-315 -146 c-8 -3 -27 -14 -42 -24 -14 -11 -32 -18 -40
-16 -7 2 -9 2 -5 -1 15 -8 -24 -41 -41 -35 -9 4 -13 2 -9 -4 4 -6 0 -13 -8
-17 -12 -4 -15 5 -15 49 l0 55 88 -1 c48 0 80 -3 72 -6z m6 -43 c-2 -17 0 -47
6 -67 9 -33 8 -39 -13 -55 -13 -10 -46 -38 -73 -61 -70 -60 -73 -61 -72 -25 1
17 7 33 14 36 13 4 17 23 5 21 -24 -4 -33 4 -33 29 0 25 11 36 80 81 44 29 80
57 80 62 0 5 3 9 6 9 3 0 3 -14 0 -30z"/>
<path d="M1909 1399 c-32 -32 -38 -43 -28 -50 8 -5 19 -9 24 -9 6 0 3 4 -5 10
-12 7 -9 13 15 34 17 14 33 26 36 26 4 0 9 7 13 15 10 27 -13 16 -55 -26z"/>
<path d="M1867 1269 c7 -7 15 -10 18 -7 3 3 -2 9 -12 12 -14 6 -15 5 -6 -5z"/>
<path d="M837 1603 c-22 -21 21 -44 66 -36 39 8 33 23 -9 23 -21 0 -33 4 -29
10 7 11 -18 14 -28 3z"/>
<path d="M2480 1540 c0 -18 108 -35 130 -21 13 9 13 10 0 15 -31 9 -130 14
-130 6z"/>
<path d="M2235 1480 c-10 -43 -1 -610 10 -610 13 0 19 595 6 618 -8 14 -10 13
-16 -8z"/>
<path d="M1759 910 c-3 -69 20 -144 49 -155 23 -9 23 -2 -3 50 -14 26 -25 60
-25 74 0 14 -5 33 -10 41 -8 12 -10 10 -11 -10z"/>
<path d="M4550 795 c-7 -9 -11 -17 -9 -20 3 -2 10 5 17 15 14 24 10 26 -8 5z"/>
</g>
</svg>
